<svg xmlns="http://www.w3.org/2000/svg" width="209" height="53" viewBox="0 0 209 53" fill="none"><path fill-rule="evenodd" clip-rule="evenodd" d="M10.4043 31.1201L42.5032 4.11724C50.3376 -0.816259 59.153 -1.30524 66.7384 2.59193C77.5601 8.15307 82.9636 19.7789 79.6249 31.5653C77.194 40.1332 70.1065 46.8912 59.5923 48.3509L21.4676 52.7297L24.162 46.592L14.7755 51.7372L17.7847 46.9569L0 51.5766L12.7473 38.9874L7.97347 39.4618L17.0599 32.7841L10.4043 31.1201Z" fill="#F79348"></path><path fill-rule="evenodd" clip-rule="evenodd" d="M18.335 41.0458L46.6924 19.9543L43.998 14.9041L68.5993 16.0863L57.1626 39.6153L53.3186 32.4048L18.335 41.0458Z" fill="white"></path><path d="M91.6055 42.0667V10.3647H106.916C111.176 10.3647 114.163 11.3015 115.875 13.1751C117.587 15.0487 118.444 18.3275 118.444 23.0115V29.42C118.444 34.1039 117.587 37.3827 115.875 39.2563C114.163 41.1299 111.176 42.0667 106.916 42.0667H91.6055ZM99.6751 34.9981H105.682C107.529 34.9981 108.743 34.6504 109.322 33.9549C109.902 33.2594 110.192 31.5561 110.192 28.8451V23.6289C110.192 20.9179 109.895 19.2075 109.302 18.4978C108.722 17.7881 107.516 17.4333 105.682 17.4333H99.6751V34.9981Z" fill="#653052"></path><path d="M131.428 37.4892H133.289C133.963 37.4892 134.468 37.3259 134.805 36.9995C135.143 36.673 135.311 36.1833 135.311 35.5304V34.3594C135.311 33.6923 135.143 33.1955 134.805 32.8691C134.468 32.5426 133.963 32.3794 133.289 32.3794H131.428C130.74 32.3794 130.221 32.5497 129.871 32.8904C129.52 33.2168 129.345 33.7065 129.345 34.3594V35.5304C129.345 36.1833 129.52 36.673 129.871 36.9995C130.221 37.3259 130.74 37.4892 131.428 37.4892ZM123.459 25.3534C123.486 23.2102 124.053 21.6772 125.158 20.7546C126.264 19.8178 128.104 19.3494 130.68 19.3494H133.895C136.889 19.3494 139.012 19.9101 140.266 21.0314C141.52 22.1527 142.147 24.0476 142.147 26.716V42.0667H135.352V40.0228C134.785 40.8176 134.111 41.4067 133.329 41.7899C132.547 42.1731 131.637 42.3647 130.599 42.3647H128.152C126.331 42.3647 124.929 41.8254 123.945 40.7466C122.961 39.6679 122.468 38.1279 122.468 36.1266V34.0401C122.468 32.1097 123.028 30.6264 124.147 29.5903C125.266 28.5541 126.864 28.0361 128.94 28.0361H130.801C131.772 28.0361 132.648 28.2135 133.43 28.5683C134.212 28.909 134.853 29.4129 135.352 30.08V25.7154C135.352 25.0199 135.203 24.5231 134.907 24.225C134.623 23.9128 134.152 23.7566 133.491 23.7566H132.338C131.516 23.7566 130.956 23.8773 130.659 24.1186C130.363 24.3457 130.214 24.7644 130.214 25.3747L123.459 25.3534Z" fill="#653052"></path><path d="M147.77 42.0667V19.6475H154.322L154.241 22.8411C154.781 21.6063 155.455 20.7191 156.264 20.1798C157.073 19.6262 158.125 19.3494 159.419 19.3494C161.563 19.3494 163.053 19.9243 163.889 21.074C164.725 22.2237 165.143 24.367 165.143 27.5038V29.5051H158.792V28.0787C158.792 26.9999 158.637 26.2476 158.327 25.8218C158.03 25.396 157.484 25.1831 156.689 25.1831C155.853 25.1831 155.28 25.4315 154.97 25.9283C154.673 26.4251 154.525 27.6174 154.525 29.5051V42.0667H147.77Z" fill="#653052"></path><path d="M175.477 42.3647C174.223 42.3647 173.145 42.1802 172.241 41.8112C171.338 41.4421 170.61 40.8744 170.057 40.1079C169.653 39.5544 169.363 38.9227 169.187 38.213C169.026 37.5034 168.945 36.4601 168.945 35.0833V24.8425H166.498V19.6475H168.945V15.3468H175.7V19.6475H184.72V24.8425H175.7V33.9975C175.7 35.3601 175.841 36.2259 176.125 36.595C176.421 36.964 177.008 37.1485 177.884 37.1485C178.707 37.1485 179.266 36.9853 179.563 36.6588C179.859 36.3324 180.008 35.6936 180.008 34.7427V32.8691H185.63V35.4027C185.63 37.7872 185.098 39.5473 184.032 40.6828C182.981 41.8041 181.329 42.3647 179.077 42.3647H175.477Z" fill="#653052"></path><path d="M197.886 37.4892H199.747C200.421 37.4892 200.927 37.3259 201.264 36.9995C201.601 36.673 201.77 36.1833 201.77 35.5304V34.3594C201.77 33.6923 201.601 33.1955 201.264 32.8691C200.927 32.5426 200.421 32.3794 199.747 32.3794H197.886C197.199 32.3794 196.68 32.5497 196.329 32.8904C195.979 33.2168 195.803 33.7065 195.803 34.3594V35.5304C195.803 36.1833 195.979 36.673 196.329 36.9995C196.68 37.3259 197.199 37.4892 197.886 37.4892ZM189.918 25.3534C189.945 23.2102 190.511 21.6772 191.617 20.7546C192.722 19.8178 194.563 19.3494 197.138 19.3494H200.354C203.347 19.3494 205.471 19.9101 206.725 21.0314C207.979 22.1527 208.605 24.0476 208.605 26.716V42.0667H201.81V40.0228C201.244 40.8176 200.57 41.4067 199.787 41.7899C199.005 42.1731 198.095 42.3647 197.057 42.3647H194.61C192.79 42.3647 191.387 41.8254 190.403 40.7466C189.419 39.6679 188.927 38.1279 188.927 36.1266V34.0401C188.927 32.1097 189.486 30.6264 190.605 29.5903C191.725 28.5541 193.322 28.0361 195.399 28.0361H197.259C198.23 28.0361 199.107 28.2135 199.889 28.5683C200.671 28.909 201.311 29.4129 201.81 30.08V25.7154C201.81 25.0199 201.662 24.5231 201.365 24.225C201.082 23.9128 200.61 23.7566 199.949 23.7566H198.796C197.974 23.7566 197.414 23.8773 197.118 24.1186C196.821 24.3457 196.673 24.7644 196.673 25.3747L189.918 25.3534Z" fill="#653052"></path></svg>